<svg width="314" height="108" viewBox="0 0 314 108" fill="none" xmlns="http://www.w3.org/2000/svg">
<path fill-rule="evenodd" clip-rule="evenodd" d="M39.4858 1.86376C40.803 14.3335 40.2994 18.801 36.7395 26.2175C33.429 33.1147 30.6556 36.3158 23.8432 41.1016C16.3746 46.3487 14.5819 47.771 11.4508 50.9313C6.10209 56.3297 2.57493 62.3702 0.760818 69.2393C0.10494 71.7218 0 72.8802 0 77.6298C0 82.355 0.105586 83.5325 0.741706 85.8951C2.83145 93.6558 7.99069 100.046 13.8146 102.087C14.7671 102.421 16.1233 102.802 16.8277 102.933L18.109 103.171L16.635 101.421C12.2191 96.1776 9.46602 90.2547 8.38099 83.6628C7.39927 77.7011 8.32819 69.9404 10.6489 64.7137C12.3755 60.8248 14.453 58.2781 22.9832 49.5923C32.1364 40.2725 34.4658 37.3579 37.1019 31.9271C39.6999 26.5747 41.1794 21.3091 41.9292 14.748C42.3007 11.4954 42.3716 4.3155 42.0578 1.7017L41.8534 0H40.5715H39.2892L39.4858 1.86376ZM42.3966 0.514074C42.5281 0.855385 42.7179 3.68701 42.8186 6.80678C43.1613 17.4289 41.6147 25.493 37.7964 32.9905C35.076 38.3326 32.585 41.4355 23.952 50.2357C19.4894 54.7842 15.2465 59.3811 14.5229 60.4507C10.7276 66.0605 9.20625 71.3147 9.21953 78.7642C9.23443 87.1038 11.8916 94.5355 17.2164 101.128C18.7354 103.01 18.8349 103.072 20.3241 103.073C21.1704 103.074 21.8626 102.984 21.8626 102.874C21.8626 102.765 21.2236 101.707 20.4423 100.525C17.4868 96.0499 15.0648 90.1257 14.064 84.9227C13.4172 81.5599 13.5674 74.8571 14.3558 71.9062C15.8207 66.4235 19.0587 59.9418 22.9926 54.6163C23.9144 53.3684 26.5904 50.0866 28.9393 47.3234C33.9029 41.4838 35.647 38.9899 37.7614 34.7094C41.1775 27.7944 43.1399 20.1059 43.4654 12.3647C43.6714 7.46315 43.1208 0.48944 42.4973 0.103722C42.278 -0.0320892 42.2421 0.113446 42.3966 0.514074ZM43.8871 0.217817C43.8871 0.703692 44.9323 6.00618 45.0528 6.13162C45.1244 6.20584 45.1827 4.85648 45.1827 3.13339C45.1827 0.216197 45.138 0 44.5349 0C44.1786 0 43.8871 0.0978883 43.8871 0.217817ZM45.5743 6.45315C45.5056 21.8757 43.5652 30.1226 35.9576 47.3234C30.7997 58.9853 29.5757 62.6308 28.3245 70.0548C27.4568 75.2014 27.1274 84.4255 27.6761 88.1926C28.4554 93.5424 30.7336 99.1722 34.4516 104.938L36.1763 107.612H38.8529C40.325 107.612 42.2191 107.517 43.0619 107.402C44.5015 107.204 44.5841 107.14 44.4287 106.349C44.3373 105.885 43.8162 103.39 43.2701 100.805C41.3592 91.7577 40.6136 81.0685 41.2698 72.1195C41.479 69.2671 42.3668 61.2449 43.2426 54.2922C45.8217 33.8229 46.7419 22.7894 47.034 8.83261L47.2193 0H46.4112H45.6031L45.5743 6.45315ZM48.5466 3.64649C49.6579 20.9464 49.7916 25.6752 50.0057 55.2646C50.2156 84.292 50.1398 92.0481 49.5429 102.486L49.3081 106.597L51.0509 107.079C52.0096 107.345 53.608 107.654 54.6024 107.766L56.411 107.969L57.4099 106.089C62.3081 96.8699 63.5839 86.4313 61.8478 69.7841C60.9613 61.286 59.899 56.6402 55.7483 43.1096C50.6946 26.6359 49.3933 18.9987 49.3933 5.81688C49.3933 0.946791 49.333 0.324133 48.8634 0.324133C48.3931 0.324133 48.3571 0.699154 48.5466 3.64649ZM50.1324 7.21195C50.455 19.4275 51.9811 27.4437 57.1213 43.92C61.8556 59.0955 62.9293 64.5598 63.6162 76.9718C64.254 88.4908 62.7829 97.0009 58.8 104.829L57.187 108L59.5252 107.786C60.811 107.668 63.1748 107.343 64.778 107.062C67.5745 106.574 67.7501 106.492 69.091 105.057C71.2617 102.733 73.9357 98.5201 75.1467 95.5144C76.9074 91.1445 77.6588 86.8818 77.6708 81.1952C77.6974 68.4724 75.585 62.1009 66.7087 48.1337C57.2016 33.1734 54.1522 27.0388 52.3692 19.2859C51.2925 14.6054 50.9 10.0591 51.1306 4.94302C51.3366 0.372104 51.3317 0.324133 50.6444 0.324133C49.9507 0.324133 49.9504 0.329643 50.1324 7.21195ZM52.3147 4.45682C52.3364 18.8422 57.1669 30.7819 68.3454 44.082C70.0685 46.1322 72.5942 49.1463 73.9581 50.7799C82.7569 61.3178 87.1595 75.3475 85.1935 86.582C84.3624 91.3315 82.2914 96.3847 79.471 100.544C78.7827 101.559 78.2195 102.471 78.2195 102.57C78.2195 102.865 80.2367 102.771 81.5115 102.417C82.3086 102.195 83.2926 101.444 84.5091 100.129C92.698 91.2774 95.1657 79.7246 91.3338 68.178C88.2857 58.9934 84.2558 53.723 71.4113 42.1223C63.5541 35.0261 59.8637 30.6195 57.2162 25.1721C54.4706 19.5219 53.1986 13.3977 53.1504 5.59161C53.1261 1.61191 53.0192 0.324781 52.7131 0.324457C52.41 0.324132 52.3099 1.3633 52.3147 4.45682ZM53.6417 3.59236C53.6625 5.44964 53.7872 7.91694 53.9183 9.07571C54.0547 10.2792 54.0887 8.88901 53.9974 5.83439C53.8192 -0.140025 53.5831 -1.6265 53.6417 3.59236ZM54.3268 12.317C54.3268 12.941 54.3935 13.1964 54.4748 12.8843C54.5564 12.5721 54.5564 12.0619 54.4748 11.7498C54.3935 11.4377 54.3268 11.6931 54.3268 12.317ZM54.6267 14.2618C54.6267 14.7075 54.7002 14.89 54.7899 14.667C54.88 14.4443 54.88 14.0797 54.7899 13.8567C54.7002 13.634 54.6267 13.8162 54.6267 14.2618ZM54.9506 15.8825C54.9506 16.3282 55.0241 16.5107 55.1138 16.2877C55.2038 16.065 55.2038 15.7003 55.1138 15.4773C55.0241 15.2547 54.9506 15.4368 54.9506 15.8825ZM47.1791 27.3892C47.0975 30.3524 45.9584 41.698 44.8523 50.5647C42.8837 66.3473 42.5472 69.9682 42.3674 77.3056C42.1252 87.2066 42.9294 96.444 44.7176 104.29C45.2983 106.839 45.5046 106.993 47.1801 106.126L48.1738 105.611L47.9319 73.6312C47.7184 45.4531 47.3336 21.7921 47.1791 27.3892ZM59.4096 27.1814C60.0379 28.3567 63.5573 32.927 65.2885 34.8167C66.2547 35.8711 69.6688 39.0959 72.8753 41.983C83.5572 51.6006 87.9689 56.8639 90.8577 63.4363C96.3211 75.8655 95.1596 87.615 87.4717 97.6884C85.4756 100.304 85.3868 100.482 86.502 99.6332C89.7095 97.1908 93.3763 91.2495 94.9241 85.9865C95.9454 82.5138 96.3113 76.623 95.7355 72.9298C94.9403 67.8309 92.2077 61.1898 88.7336 55.9129C85.152 50.4726 81.4202 46.806 71.9036 39.3772C66.6832 35.3023 62.3547 31.1232 60.5778 28.4426C59.3765 26.6307 58.7576 25.9627 59.4096 27.1814ZM38.7049 37.5099C38.7049 38.2953 34.6346 43.9517 30.4764 48.944C23.4927 57.3293 20.181 62.6474 17.5584 69.6885C14.0714 79.0498 15.652 90.3056 21.9141 100.702C23.8156 103.858 23.985 104.038 25.826 104.865C28.8868 106.24 35.1421 107.787 35.1421 107.169C35.1421 107.07 34.3165 105.78 33.3076 104.302C29.6162 98.8964 27.1012 92.4293 26.3608 86.4393C25.9261 82.9238 26.1464 76.5261 26.8758 71.4712C27.9384 64.1076 29.8206 58.1355 33.8841 49.2328C37.0767 42.2387 39.0566 37.519 38.8743 37.3368C38.7813 37.2435 38.7049 37.3213 38.7049 37.5099ZM135.049 43.5148C134.963 43.7378 134.931 50.6295 134.978 58.8301L135.062 73.7402L136.235 73.8384C137.226 73.921 137.438 73.8209 137.607 73.1901C137.717 72.7794 137.808 68.6205 137.811 63.9478L137.815 55.4516L139.494 54.9531C141.8 54.2676 145.445 54.3016 146.878 55.0222C147.498 55.3336 148.336 56.0843 148.74 56.6901C149.452 57.7559 149.475 58.0333 149.475 65.2988C149.475 73.5839 149.572 74.0426 151.273 73.8491L152.228 73.7402L152.316 66.1461C152.416 57.3942 152.16 55.8659 150.279 53.984C148.074 51.7769 143.038 51.233 138.382 52.6988C137.862 52.8628 137.815 52.5211 137.815 48.5061C137.815 46.102 137.727 43.9044 137.619 43.6224C137.38 43.0004 135.279 42.9126 135.049 43.5148ZM245.495 43.5148C245.41 43.7378 245.378 50.6295 245.424 58.8301L245.509 73.7402L246.681 73.8384C248.18 73.9635 248.252 73.7107 248.257 68.2795L248.262 64.1157L251.313 64.2278C255.195 64.3708 255.495 64.6262 258.017 69.9316L259.905 73.9022H261.155C261.843 73.9022 262.497 73.8102 262.61 73.6974C262.94 73.3671 258.022 63.9332 257.189 63.2982C256.771 62.9799 256.181 62.5725 255.878 62.3923C255.4 62.108 255.8 61.4737 258.917 57.575C260.891 55.1058 262.427 52.9558 262.329 52.7973C262.231 52.6391 261.583 52.5095 260.889 52.5095C259.65 52.5095 259.565 52.5908 256.131 57.034L252.634 61.5586L250.448 61.5719L248.262 61.5852V52.8602C248.262 48.0614 248.173 43.9044 248.065 43.6224C247.827 43.0004 245.726 42.9126 245.495 43.5148ZM294.853 43.5595C291.977 44.3349 290.547 45.8858 290.198 48.6092C290.094 49.4173 289.933 50.6188 289.839 51.2791L289.668 52.48L287.67 52.5756L285.671 52.6715V53.806V54.9405L287.695 55.0371L289.72 55.1333V63.9698C289.72 73.6873 289.785 74.0461 291.517 73.8491L292.473 73.7402L292.559 64.4327L292.645 55.1252L295.96 55.0329L299.275 54.9405V53.806V52.6715L295.955 52.5792L292.635 52.4868L292.653 50.9585C292.694 47.4958 293.916 46.0842 297.125 45.7931C298.882 45.6337 299.146 45.5196 299.315 44.8476C299.646 43.5281 299.262 43.1077 297.746 43.1313C296.984 43.1437 295.682 43.3362 294.853 43.5595ZM309.428 43.5595C306.552 44.3349 305.122 45.8858 304.773 48.6092C304.669 49.4173 304.508 50.6188 304.414 51.2791L304.243 52.48L302.245 52.5756L300.246 52.6715V53.806V54.9405L302.271 55.0371L304.295 55.1333V63.9698C304.295 73.6873 304.36 74.0461 306.092 73.8491L307.048 73.7402L307.134 64.4327L307.22 55.1252L310.535 55.0329L313.85 54.9405V53.806V52.6715L310.53 52.5792L307.21 52.4868L307.228 50.9585C307.269 47.4958 308.492 46.0842 311.7 45.7931C313.457 45.6337 313.721 45.5196 313.89 44.8476C314.221 43.5281 313.837 43.1077 312.321 43.1313C311.559 43.1437 310.257 43.3362 309.428 43.5595ZM115.854 44.082C112.6 44.7737 110.215 46.6475 108.861 49.5758C108.225 50.951 108.179 51.5983 108.179 59.1542V67.2575L109.087 69.1064C110.124 71.2194 111.359 72.384 113.714 73.4676C116.835 74.9038 122.504 74.7994 125.499 73.2507C127.077 72.4352 128.908 70.4557 129.693 68.7161C130.564 66.7862 130.538 66.5532 129.385 65.9561C128.214 65.3503 127.858 65.5211 127.248 66.98C125.987 70.0019 123.216 71.6333 119.346 71.6333C115.555 71.6333 112.937 70.2554 111.708 67.6137C110.978 66.0452 110.939 65.6245 110.936 59.3539C110.933 55.0656 111.072 52.2813 111.329 51.4204C112.192 48.5398 115.345 46.6751 119.354 46.6751C123.2 46.6751 125.543 48.0235 127.099 51.1319C127.818 52.5698 128.157 52.7176 129.535 52.1934C130.557 51.8048 130.563 51.4813 129.593 49.4302C127.876 45.8035 124.993 44.1012 120.239 43.9076C118.594 43.8406 116.621 43.919 115.854 44.082ZM69.7051 50.7893C76.5298 61.6435 78.372 67.1975 78.7691 78.116C79.1743 89.2544 76.7626 97.033 70.7072 104.118L69.1224 105.973L70.3826 105.528C74.4141 104.104 76.8944 102.275 78.6535 99.428C83.4561 91.6559 84.7741 82.0548 82.4168 72.0158C81.1458 66.6021 77.8979 59.6064 74.5647 55.1025C73.2941 53.3856 67.227 46.351 67.0168 46.351C66.9604 46.351 68.1701 48.3483 69.7051 50.7893ZM162.662 52.3014C160.628 52.8761 158.901 54.312 157.898 56.2629C157.126 57.7646 157.087 58.106 157.087 63.3592V68.8782L158.093 70.6609C158.92 72.1257 159.436 72.617 160.986 73.416C162.699 74.2986 163.161 74.3884 165.995 74.3884C168.828 74.3884 169.293 74.298 171.023 73.4128C172.749 72.5295 175.063 70.201 175.063 69.3475C175.063 69.1877 174.604 68.8195 174.044 68.5297L173.025 68.0024L171.784 69.4558C170.263 71.2369 168.56 71.9597 165.906 71.9503C161.736 71.9357 159.843 70.1932 159.841 66.3661L159.84 64.1782H167.297H174.755L175.093 63.2875C175.459 62.3255 175.239 59.3069 174.655 57.2713C174.172 55.5868 172.127 53.35 170.452 52.6758C168.616 51.9358 164.633 51.7442 162.662 52.3014ZM183.376 52.326C181.3 52.8842 180.236 53.7068 179.354 55.4332C177.875 58.3306 178.859 61.7897 181.54 63.1167C182.403 63.5433 184.393 64.033 186.413 64.315C191.897 65.081 192.877 65.6505 192.877 68.0743C192.877 70.8755 191.246 71.959 187.047 71.9483C184.302 71.9415 182.512 71.1367 181.357 69.39C180.482 68.0662 179.638 67.744 178.663 68.3622C177.425 69.1466 180.193 72.8047 182.781 73.804C183.857 74.2199 185.181 74.3884 187.37 74.3884C190.144 74.3884 190.638 74.2925 192.38 73.416C194.968 72.1143 195.925 70.433 195.684 67.6131C195.587 66.4789 195.272 65.3568 194.91 64.858C193.907 63.4723 191.549 62.5155 188 62.0539C182.484 61.3359 181.54 60.7441 181.54 58.0042C181.54 55.5592 183.214 54.4543 186.916 54.4543C189.567 54.4543 190.893 55.0115 192.243 56.6924C193.325 58.0401 193.957 58.1769 195.053 57.3002C195.618 56.8483 194.477 54.7194 193.11 53.6764C190.993 52.0606 186.619 51.4538 183.376 52.326ZM205.355 52.2067C204.47 52.3552 203.139 52.7078 202.399 52.9908C199.891 53.9493 199.982 53.5104 200.078 64.2094L200.164 73.7402L201.12 73.8491C202.848 74.0458 202.917 73.6734 202.917 64.1481V55.4902L203.97 55.1029C204.549 54.8899 206.334 54.6471 207.938 54.5632C211.321 54.3865 212.616 54.853 213.842 56.6901C214.552 57.7533 214.577 58.0444 214.582 65.1176C214.584 69.1469 214.676 72.7794 214.786 73.1901C214.955 73.8209 215.167 73.921 216.158 73.8384L217.33 73.7402L217.417 66.1461C217.518 57.3942 217.262 55.8659 215.381 53.984C213.488 52.0897 209.879 51.4499 205.355 52.2067ZM227.793 52.2939C225.605 52.9133 223.77 54.2472 222.924 55.8322C222.236 57.1216 222.189 57.5925 222.189 63.2059C222.189 69.0007 222.216 69.2509 222.998 70.6476C224.057 72.537 226.168 73.8374 228.951 74.3145C233.323 75.0639 237.571 73.5434 239.193 70.6476C239.976 69.2503 240.003 69.0023 240.003 63.1806V57.1585L239.02 55.5683C237.633 53.3237 235.341 52.1782 231.871 51.9967C230.315 51.9153 228.719 52.0317 227.793 52.2939ZM270.87 52.2939C268.683 52.9133 266.847 54.2472 266.001 55.8322C265.313 57.1216 265.266 57.5925 265.266 63.2059C265.266 69.0007 265.293 69.2509 266.076 70.6476C267.134 72.537 269.245 73.8374 272.029 74.3145C276.401 75.0639 280.648 73.5434 282.27 70.6476C283.053 69.2503 283.08 69.0023 283.08 63.1806V57.1585L282.098 55.5683C280.711 53.3237 278.418 52.1782 274.948 51.9967C273.392 51.9153 271.796 52.0317 270.87 52.2939ZM169.569 55.2007C171.362 56.1495 172.472 58.1137 172.472 60.3396V61.9093H166.118H159.764L159.898 59.806C160.058 57.2927 160.717 56.2292 162.761 55.1836C164.737 54.1733 167.642 54.1807 169.569 55.2007ZM234.588 55.1469C237.017 56.3235 237.247 57.0217 237.247 63.2059C237.247 67.9985 237.179 68.6656 236.594 69.6263C234.674 72.7772 227.492 72.736 225.559 69.5631C225.021 68.6798 224.944 67.8883 224.944 63.2059C224.944 58.5377 225.022 57.7303 225.555 56.8561C226.958 54.5528 231.563 53.6812 234.588 55.1469ZM277.665 55.1469C280.094 56.3235 280.325 57.0217 280.325 63.2059C280.325 67.9985 280.257 68.6656 279.671 69.6263C277.752 72.7772 270.57 72.736 268.636 69.5631C268.098 68.6798 268.021 67.8883 268.021 63.2059C268.021 58.5377 268.099 57.7303 268.632 56.8561C270.035 54.5528 274.64 53.6812 277.665 55.1469ZM227.425 83.5183C227.306 83.6369 227.209 84.8923 227.209 86.3081C227.209 88.6295 227.153 88.8593 226.642 88.6548C225.245 88.0957 222.51 88.1248 221.379 88.7109C219.673 89.5954 219.113 91.0219 219.113 94.4846C219.113 97.9474 219.673 99.3739 221.379 100.258C222.709 100.948 226.143 100.872 227.713 100.119L228.666 99.6623L228.753 91.4822C228.835 83.7072 228.81 83.3021 228.24 83.3021C227.911 83.3021 227.544 83.3993 227.425 83.5183ZM245.239 83.5183C245.12 83.6369 245.023 84.8923 245.023 86.3081C245.023 88.6295 244.967 88.8593 244.456 88.6548C243.059 88.0957 240.324 88.1248 239.193 88.7109C237.487 89.5954 236.927 91.0219 236.927 94.4846C236.927 97.9474 237.487 99.3739 239.193 100.258C240.523 100.948 243.957 100.872 245.527 100.119L246.48 99.6623L246.567 91.4822C246.649 83.7072 246.624 83.3021 246.054 83.3021C245.725 83.3021 245.358 83.3993 245.239 83.5183ZM261.865 91.8916V100.481H262.675H263.485V91.8916V83.3021H262.675H261.865V91.8916ZM159.318 84.738C158.995 85.5791 159.447 86.274 160.243 86.1609C160.778 86.0848 160.973 85.841 160.973 85.2469C160.973 84.6527 160.778 84.409 160.243 84.3328C159.805 84.2706 159.435 84.4326 159.318 84.738ZM266.526 84.738C266.203 85.5791 266.655 86.274 267.451 86.1609C267.986 86.0848 268.181 85.841 268.181 85.2469C268.181 84.6527 267.986 84.409 267.451 84.3328C267.013 84.2706 266.643 84.4326 266.526 84.738ZM132.309 87.1917V88.4882H131.014C129.934 88.4882 129.718 88.5961 129.718 89.1365C129.718 89.6735 129.934 89.7847 130.976 89.7847H132.234L132.368 94.0795C132.54 99.5982 132.96 100.32 136.22 100.706C137.668 100.878 137.815 100.835 137.815 100.239C137.815 99.7097 137.534 99.5401 136.363 99.3645C134.165 99.0345 133.929 98.4906 133.929 93.7641V89.7847H135.872C137.599 89.7847 137.815 89.7128 137.815 89.1365C137.815 88.5602 137.599 88.4882 135.872 88.4882H133.929V87.1917C133.929 86.0248 133.848 85.8951 133.119 85.8951C132.39 85.8951 132.309 86.0248 132.309 87.1917ZM109.45 88.7579C107.595 89.6301 107.046 90.9377 107.046 94.4846C107.046 98.0433 107.595 99.3479 109.45 100.191C112.001 101.35 115.338 100.587 116.527 98.5742C117.249 97.35 117.232 97.0294 116.432 96.82C115.943 96.692 115.651 96.8939 115.277 97.618C114.257 99.5923 111.071 100.001 109.439 98.3674C108.731 97.6592 108.665 97.3296 108.665 94.4846C108.665 91.6397 108.731 91.3101 109.439 90.6019C110.996 89.0438 113.868 89.2544 114.981 91.008C115.618 92.0112 116.536 92.358 116.919 91.7389C117.218 91.2534 116.247 89.6217 115.28 88.988C113.957 88.1203 111.051 88.0056 109.45 88.7579ZM121.135 88.7858C120.422 89.1504 119.652 89.7491 119.424 90.1163C118.644 91.3681 119.774 91.9042 120.8 90.7694C121.582 89.9043 123.356 89.3634 124.551 89.6259C125.975 89.939 126.803 90.9733 126.803 92.439V93.6743H124.202C121.028 93.6743 119.618 94.1965 119.044 95.5848C118.542 96.7967 118.781 98.6967 119.541 99.5366C119.837 99.8643 120.593 100.302 121.22 100.509C122.73 101.008 126.549 100.722 127.602 100.032C128.405 99.5055 128.422 99.4085 128.422 95.6013C128.422 89.8794 127.678 88.5514 124.317 88.2769C122.839 88.1563 122.15 88.2665 121.135 88.7858ZM141.401 88.7109C139.484 89.7254 138.964 90.7733 138.834 93.8853C138.677 97.6368 139.308 99.3353 141.175 100.184C143.544 101.26 146.427 100.847 147.997 99.206C148.551 98.6274 148.835 98.0514 148.718 97.7454C148.431 96.9967 147.677 97.1315 147.084 98.0375C146.367 99.1334 144.235 99.6912 142.617 99.206C141.116 98.7557 140.406 97.7924 140.406 96.2048V94.9897L144.698 94.8992L148.989 94.8088L148.953 92.9554C148.892 89.906 147.553 88.5342 144.386 88.2762C142.977 88.1615 142.236 88.2694 141.401 88.7109ZM153.873 88.5271C151.72 89.0324 151.743 88.9647 151.743 95.0331V100.526L152.471 100.423C153.187 100.321 153.202 100.227 153.29 95.3086C153.353 91.7953 153.498 90.2243 153.776 90.0505C153.994 89.9144 155.01 89.7069 156.034 89.5899C157.562 89.4152 157.896 89.2681 157.896 88.7705C157.896 88.2681 157.66 88.1696 156.52 88.1965C155.763 88.2146 154.572 88.3634 153.873 88.5271ZM166.541 88.5031C163.929 89.1536 164.05 88.8366 164.05 95.0049V100.526L164.779 100.423C165.495 100.321 165.51 100.23 165.597 95.2182L165.686 90.117L166.569 89.8745C167.054 89.741 168.236 89.6379 169.195 89.6454C170.687 89.6567 171.05 89.7873 171.705 90.55C172.432 91.3957 172.472 91.6747 172.472 95.9838C172.472 100.509 172.474 100.526 173.2 100.423C173.906 100.322 173.932 100.192 174.019 96.2401C174.121 91.6209 173.767 90.045 172.395 89.0263C171.375 88.2691 168.509 88.0127 166.541 88.5031ZM179.111 88.7462C177.219 89.6392 176.844 90.5889 176.844 94.4846C176.844 98.1289 177.151 99.0718 178.62 99.9401C179.636 100.541 182.374 100.662 184.053 100.18L185.103 99.8782V101.168C185.103 103 184.361 104.245 183.003 104.693C181.467 105.2 180.157 104.857 178.962 103.635C178.074 102.725 177.918 102.671 177.477 103.112C177.035 103.555 177.058 103.701 177.697 104.514C179.64 106.986 183.991 106.855 185.89 104.267C186.52 103.408 186.561 102.922 186.561 96.3306V89.3089L185.667 88.8794C184.087 88.12 180.588 88.049 179.111 88.7462ZM196.601 88.7858C195.889 89.1504 195.119 89.7491 194.89 90.1163C194.11 91.3681 195.24 91.9042 196.266 90.7694C197.049 89.9043 198.823 89.3634 200.018 89.6259C201.441 89.939 202.269 90.9733 202.269 92.439V93.6743H199.668C196.495 93.6743 195.085 94.1965 194.51 95.5848C194.009 96.7967 194.248 98.6967 195.007 99.5366C195.304 99.8643 196.059 100.302 196.686 100.509C198.196 101.008 202.016 100.722 203.069 100.032C203.871 99.5055 203.889 99.4085 203.889 95.6013C203.889 89.8794 203.145 88.5514 199.783 88.2769C198.305 88.1563 197.616 88.2665 196.601 88.7858ZM208.971 88.5031C206.359 89.1536 206.48 88.8366 206.48 95.0049V100.526L207.209 100.423C207.925 100.321 207.939 100.23 208.027 95.2182L208.116 90.117L208.998 89.8745C209.484 89.741 210.666 89.6379 211.625 89.6454C213.117 89.6567 213.479 89.7873 214.135 90.55C214.862 91.3957 214.901 91.6747 214.901 95.9838C214.901 100.509 214.904 100.526 215.63 100.423C216.336 100.322 216.362 100.192 216.449 96.2401C216.551 91.6209 216.196 90.045 214.824 89.0263C213.805 88.2691 210.939 88.0127 208.971 88.5031ZM251.524 88.7109C249.606 89.7254 249.086 90.7733 248.956 93.8853C248.8 97.6368 249.431 99.3353 251.297 100.184C253.666 101.26 256.549 100.847 258.12 99.206C258.674 98.6274 258.958 98.0514 258.84 97.7454C258.553 96.9967 257.8 97.1315 257.207 98.0375C256.489 99.1334 254.358 99.6912 252.74 99.206C251.239 98.7557 250.529 97.7924 250.529 96.2048V94.9897L254.821 94.8992L259.112 94.8088L259.075 92.9554C259.015 89.906 257.676 88.5342 254.508 88.2762C253.099 88.1615 252.359 88.2694 251.524 88.7109ZM284.884 88.7109C282.967 89.7254 282.447 90.7733 282.317 93.8853C282.16 97.6368 282.791 99.3353 284.658 100.184C287.027 101.26 289.91 100.847 291.481 99.206C292.035 98.6274 292.319 98.0514 292.201 97.7454C291.914 96.9967 291.161 97.1315 290.568 98.0375C289.85 99.1334 287.718 99.6912 286.101 99.206C284.599 98.7557 283.89 97.7924 283.89 96.2048V94.9897L288.181 94.8992L292.473 94.8088L292.436 92.9554C292.375 89.906 291.036 88.5342 287.869 88.2762C286.46 88.1615 285.719 88.2694 284.884 88.7109ZM297.356 88.5271C295.204 89.0324 295.226 88.9647 295.226 95.0331V100.526L295.955 100.423C296.67 100.321 296.685 100.227 296.773 95.3086C296.836 91.7953 296.981 90.2243 297.259 90.0505C297.477 89.9144 298.493 89.7069 299.517 89.5899C301.045 89.4152 301.38 89.2681 301.38 88.7705C301.38 88.2681 301.144 88.1696 300.003 88.1965C299.246 88.2146 298.055 88.3634 297.356 88.5271ZM159.336 88.9053C159.248 89.1345 159.216 91.7966 159.265 94.8208C159.353 100.245 159.364 100.32 160.083 100.423L160.811 100.526V94.5073C160.811 88.6733 160.791 88.4882 160.154 88.4882C159.792 88.4882 159.424 88.6759 159.336 88.9053ZM266.543 88.9053C266.455 89.1345 266.424 91.7966 266.473 94.8208C266.56 100.245 266.571 100.32 267.29 100.423L268.019 100.526V94.5073C268.019 88.6733 267.999 88.4882 267.361 88.4882C266.999 88.4882 266.631 88.6759 266.543 88.9053ZM269.962 88.6198C269.962 88.6924 270.997 91.2083 272.261 94.2111C273.525 97.2138 274.637 99.8607 274.731 100.093C274.826 100.325 275.197 100.471 275.556 100.417C276.068 100.34 276.721 99.1 278.592 94.6506C279.902 91.5331 280.975 88.8609 280.975 88.7125C280.975 88.5644 280.65 88.4898 280.253 88.5465C279.67 88.6305 279.239 89.3442 278.011 92.2585C277.175 94.2432 276.273 96.504 276.006 97.2826C275.608 98.4491 275.484 98.5843 275.303 98.0501C275.183 97.6936 274.268 95.3964 273.27 92.945C271.677 89.0324 271.365 88.4882 270.709 88.4882C270.299 88.4882 269.962 88.5475 269.962 88.6198ZM302.675 93.0581C302.675 97.9036 303.025 99.0711 304.752 100.002C305.628 100.474 306.308 100.547 308.46 100.399L311.097 100.218V101.338C311.097 104.766 307.268 106.213 304.903 103.68C304.352 103.089 303.842 102.82 303.516 102.945C302.763 103.234 302.881 103.812 303.89 104.776C306.225 107.005 310.053 106.761 311.883 104.267C312.506 103.418 312.561 102.835 312.657 96.0823L312.76 88.8123H311.929H311.097V93.6552C311.097 96.4554 310.963 98.5804 310.78 98.6935C310.231 99.0335 307.299 99.2773 306.419 99.0562C305.954 98.9395 305.286 98.5561 304.935 98.2041C304.361 97.6297 304.295 97.113 304.295 93.1881V88.8123H303.485H302.675V93.0581ZM146.228 90.1785C146.97 90.6424 147.532 91.8063 147.532 92.8792V93.6743H143.969H140.406V92.6805C140.406 91.2981 140.931 90.4586 142.132 89.9179C143.243 89.4181 145.211 89.5432 146.228 90.1785ZM184.621 89.9931C185.013 90.1435 185.103 90.9532 185.103 94.3255V98.4728L184.083 98.8287C181.923 99.5826 178.996 98.9966 178.503 97.7114C178.166 96.8317 178.279 91.7298 178.651 91.0336C179.377 89.6765 182.417 89.1468 184.621 89.9931ZM225.77 89.8233L227.209 90.1857V94.5106V98.8355L225.877 99.1943C224.04 99.6896 222.181 99.3207 221.38 98.3023C220.838 97.6129 220.731 96.9876 220.731 94.5132C220.731 91.3464 221.103 90.3325 222.466 89.7821C223.427 89.3941 224.101 89.4026 225.77 89.8233ZM243.584 89.8233L245.023 90.1857V94.5106V98.8355L243.691 99.1943C241.854 99.6896 239.995 99.3207 239.194 98.3023C238.652 97.6129 238.545 96.9876 238.545 94.5132C238.545 91.3464 238.917 90.3325 240.28 89.7821C241.241 89.3941 241.915 89.4026 243.584 89.8233ZM256.35 90.1785C257.093 90.6424 257.655 91.8063 257.655 92.8792V93.6743H254.092H250.529V92.6805C250.529 91.2981 251.053 90.4586 252.255 89.9179C253.366 89.4181 255.334 89.5432 256.35 90.1785ZM289.711 90.1785C290.453 90.6424 291.015 91.8063 291.015 92.8792V93.6743H287.453H283.89V92.6805C283.89 91.2981 284.414 90.4586 285.616 89.9179C286.727 89.4181 288.695 89.5432 289.711 90.1785ZM126.738 96.9834L126.641 98.9959L125.346 99.2705C123.716 99.616 121.461 99.3029 120.798 98.6387C120.477 98.3182 120.327 97.702 120.389 96.9639C120.519 95.4237 121.425 94.9819 124.47 94.9757L126.834 94.9708L126.738 96.9834ZM202.204 96.9834L202.107 98.9959L200.812 99.2705C199.182 99.616 196.928 99.3029 196.264 98.6387C195.944 98.3182 195.794 97.702 195.855 96.9639C195.985 95.4237 196.892 94.9819 199.937 94.9757L202.3 94.9708L202.204 96.9834Z" fill="white"/>
</svg>
