<svg width="51" height="51" viewBox="0 0 51 51" fill="none" xmlns="http://www.w3.org/2000/svg">
<g filter="url(#filter0_d_470_275)">
<path fill-rule="evenodd" clip-rule="evenodd" d="M24.5689 0.0231781C21.5567 0.136936 18.6126 0.926011 15.6563 2.41188C12.9531 3.7706 10.7349 5.55166 8.91013 7.82868C6.99178 10.2225 5.7063 12.6917 4.82766 15.6704C3.94064 18.6775 3.75663 22.1596 4.32386 25.2034C5.13619 29.562 7.23406 33.6771 10.1254 36.5836C13.5704 40.0466 18.0902 42.2479 23.1045 42.9047C24.0694 43.0311 26.8638 43.0319 27.8764 42.9061C33.0701 42.2606 38.1722 39.6776 41.3222 36.099C43.6724 33.429 45.2464 30.5798 46.1801 27.3057C47.4106 22.9909 47.2543 18.5395 45.7232 14.2925C44.6639 11.3538 42.3101 7.70517 40.2935 5.8756C38.6604 4.39397 37.1091 3.3132 35.2844 2.38576C32.5502 0.995903 29.4582 0.148761 26.715 0.0377831C25.5475 -0.00946847 25.4497 -0.0101254 24.5689 0.0231781ZM35.4261 13.0476C35.6806 13.1633 35.9344 13.4489 36.0033 13.6974C36.1305 14.1555 36.0649 14.542 35.1229 18.8914C35.0266 19.3361 34.8332 20.2457 34.6931 20.9128C34.553 21.5799 34.3486 22.5464 34.2388 23.0606C34.129 23.5748 33.9241 24.5413 33.7835 25.2084C33.643 25.8755 33.4401 26.8306 33.3326 27.3309C33.2252 27.8312 33.0421 28.6954 32.9257 29.2513C32.3646 31.931 32.3014 32.1373 31.9457 32.4498C31.5379 32.8082 30.9396 32.691 30.1291 32.094C29.9316 31.9485 28.7481 31.0698 27.499 30.1412C26.2499 29.2127 25.2025 28.4507 25.1713 28.4479C25.1401 28.4451 24.537 29.0018 23.831 29.6852C23.125 30.3685 22.4227 31.0099 22.2705 31.1105C22.0002 31.289 21.5476 31.4497 21.4866 31.3887C21.4603 31.3624 21.5344 30.3282 21.8251 26.6637L21.8861 25.8954L22.8464 25.0213C23.3746 24.5405 24.5009 23.5121 25.3493 22.7361C26.1976 21.96 28.0309 20.2836 29.4231 19.0108C30.8153 17.738 31.969 16.6589 31.9867 16.6126C32.0364 16.483 31.9231 16.3898 31.7158 16.3898C31.5731 16.3898 31.4077 16.4649 31.0277 16.7025C30.0227 17.3307 24.1036 21.0563 23.7357 21.2921C21.9613 22.43 18.9069 24.324 18.8463 24.324C18.8048 24.324 18.3712 24.2007 17.8827 24.0499C17.3942 23.8991 16.6082 23.6586 16.136 23.5153C15.6639 23.3721 15.0731 23.1897 14.8231 23.1101C14.5732 23.0304 14.1187 22.8927 13.8132 22.804C13.1719 22.6178 12.9177 22.5013 12.8066 22.3425C12.6362 22.0989 12.7558 21.6921 13.0652 21.4632C13.3541 21.2494 13.1092 21.3479 19.1406 19.0187C19.4877 18.8846 20.2149 18.6037 20.7565 18.3944C21.298 18.1851 22.1956 17.8388 22.7511 17.625C23.3065 17.4111 24.0223 17.1346 24.3417 17.0105C24.6611 16.8864 25.1496 16.6988 25.4274 16.5937C25.7051 16.4885 26.2845 16.2647 26.715 16.0964C27.1455 15.928 27.8613 15.6499 28.3057 15.4783C28.75 15.3067 30.3179 14.7001 31.7899 14.1304C33.2619 13.5608 34.5685 13.0649 34.6934 13.0285C35.0106 12.9362 35.1914 12.9409 35.4261 13.0476Z" fill="#A78466"/>
</g>
<defs>
<filter id="filter0_d_470_275" x="0" y="0" width="51" height="51" filterUnits="userSpaceOnUse" color-interpolation-filters="sRGB">
<feFlood flood-opacity="0" result="BackgroundImageFix"/>
<feColorMatrix in="SourceAlpha" type="matrix" values="0 0 0 0 0 0 0 0 0 0 0 0 0 0 0 0 0 0 127 0" result="hardAlpha"/>
<feOffset dy="4"/>
<feGaussianBlur stdDeviation="2"/>
<feComposite in2="hardAlpha" operator="out"/>
<feColorMatrix type="matrix" values="0 0 0 0 0 0 0 0 0 0 0 0 0 0 0 0 0 0 0.25 0"/>
<feBlend mode="normal" in2="BackgroundImageFix" result="effect1_dropShadow_470_275"/>
<feBlend mode="normal" in="SourceGraphic" in2="effect1_dropShadow_470_275" result="shape"/>
</filter>
</defs>
</svg>
