<svg width="51" height="51" viewBox="0 0 51 51" fill="none" xmlns="http://www.w3.org/2000/svg">
<g filter="url(#filter0_d_470_276)">
<path fill-rule="evenodd" clip-rule="evenodd" d="M23.7916 0.0351981C21.9712 0.185184 20.5576 0.472683 18.5258 1.10611C17.2984 1.4888 14.5325 2.80876 13.8129 3.3553C13.6909 3.44795 13.4802 3.58806 13.3445 3.66672C13.0534 3.83541 11.5869 4.95592 11.1338 5.35574C10.6758 5.75993 9.79538 6.64543 9.26133 7.23914C8.76929 7.7861 7.70082 9.16626 7.45656 9.57038C7.376 9.70359 7.19324 9.9897 7.05038 10.2062C6.78089 10.6145 5.89383 12.3106 5.67283 12.8402C4.83456 14.8485 4.26597 17.0561 4.06649 19.077C3.98063 19.9463 3.97717 22.2947 4.06051 23.1037C4.18295 24.2921 4.33197 25.0635 4.83252 27.1001C4.8448 27.15 4.92326 27.3816 5.00684 27.6147C6.04594 30.5124 7.24783 32.6181 9.11169 34.806L9.40894 35.1549L9.2696 35.7748C9.19299 36.1158 9.00097 36.8988 8.84288 37.5149C8.68472 38.131 8.54489 38.676 8.53212 38.726C8.51929 38.7759 8.46519 39.0211 8.41184 39.2709C8.35848 39.5207 8.13168 40.4553 7.90789 41.3478C7.68405 42.2403 7.5138 42.9831 7.52947 42.9985C7.5452 43.0139 7.83295 42.9063 8.16899 42.7593C9.20693 42.3053 10.7883 41.6003 11.3706 41.332C11.676 41.1914 12.0507 41.0272 12.2033 40.9673C12.356 40.9073 12.8001 40.7089 13.1903 40.5263C13.5804 40.3436 14.0939 40.1182 14.3314 40.0252C14.5689 39.9322 14.8411 39.8096 14.9364 39.7528C15.1091 39.6497 15.1135 39.6512 16.2717 40.1858C18.4675 41.1992 20.479 41.769 22.9669 42.082C25.3505 42.382 28.4321 42.1915 30.7389 41.6016C32.579 41.131 34.7547 40.2735 36.1362 39.4742C36.9704 38.9915 38.4498 38.0127 38.7831 37.723C38.9387 37.5877 39.1355 37.4306 39.2203 37.374C39.661 37.0796 41.3895 35.4058 41.7446 34.9296C41.839 34.8029 41.9791 34.6448 42.056 34.5782C42.2161 34.4393 43.1215 33.258 43.4339 32.78C44.0657 31.8138 44.3056 31.4053 44.7292 30.5747C44.9859 30.0713 45.2961 29.4037 45.4185 29.0912C45.5408 28.7787 45.6918 28.4004 45.7538 28.2505C46.2554 27.0397 46.7752 24.7154 46.9455 22.922C47.0572 21.7453 46.9893 19.2927 46.813 18.1384C46.4384 15.6855 45.6942 13.4258 44.5627 11.3054C44.2778 10.7715 43.9613 10.2173 43.8595 10.0737C43.7576 9.93011 43.5711 9.65061 43.445 9.45266C43.1012 8.9126 42.1553 7.69618 41.6534 7.14831C39.8607 5.19195 38.1455 3.84014 35.8943 2.60961C34.2559 1.71405 32.6275 1.08771 30.609 0.576832C29.1182 0.199475 27.7712 0.0370752 25.866 0.00498284C25.0857 -0.0080963 24.1522 0.00546729 23.7916 0.0351981ZM19.9343 9.88827C20.1182 10.1131 20.3307 10.4196 20.4066 10.5695C20.4825 10.7193 20.6065 10.9237 20.6821 11.0236C20.7577 11.1235 20.9669 11.4778 21.1471 11.8108C21.3272 12.1438 21.5638 12.5662 21.6728 12.7493C22.0365 13.3599 22.9282 15.1379 22.9939 15.3833C23.1058 15.8011 23.0709 16.3807 22.9166 16.6702C22.8407 16.8125 22.2598 17.4414 21.6176 18.0767L20.4559 19.2257L20.7372 19.6358C22.0562 21.5578 22.9835 22.676 24.4427 24.104C25.5075 25.1461 26.5698 26.0008 27.3955 26.4799C28.1075 26.8931 29.055 27.3421 29.2957 27.3804C29.5053 27.4138 29.5454 27.3903 30.005 26.9661C30.4447 26.5604 30.7836 26.2498 31.71 25.4038L32.0093 25.1306L32.8545 25.3957C33.7386 25.6729 35.3855 26.2325 36.3802 26.5938C37.1352 26.868 38.4779 27.5388 38.6973 27.7516C38.7915 27.8428 38.9546 28.0946 39.0598 28.3111C39.2322 28.6657 39.2511 28.7615 39.2511 29.2799C39.2511 29.8298 39.24 29.8779 38.9975 30.3698C38.8581 30.6529 38.6638 30.9663 38.5658 31.0662C38.4678 31.1662 38.2856 31.3705 38.1611 31.5204C37.8131 31.9388 36.8396 32.7596 36.2904 33.0976C35.5093 33.5782 34.997 33.7141 33.8847 33.736C32.8875 33.7556 32.0541 33.6673 31.2505 33.4568C29.7571 33.0658 27.3136 32.0551 26.1541 31.3488C25.8716 31.1768 25.6176 31.0359 25.5897 31.0359C25.5619 31.0359 25.3906 30.9363 25.2091 30.8145C25.0276 30.6928 24.6 30.4102 24.2589 30.1866C23.9178 29.9628 23.4876 29.6605 23.3029 29.5147C23.1181 29.3689 22.8558 29.1693 22.7202 29.0711C21.8991 28.4767 20.2934 26.9249 19.2043 25.6732C18.7889 25.1957 17.6817 23.6603 17.2537 22.9682C16.679 22.0386 15.8734 20.4077 15.4815 19.3797C14.646 17.189 14.2233 14.6207 14.5164 13.5161C14.6495 13.0145 14.9679 12.567 15.686 11.8722C16.6421 10.9473 18.2219 9.84316 18.9832 9.56801C19.449 9.39962 19.5671 9.4394 19.9343 9.88827Z" fill="#A78466"/>
</g>
<defs>
<filter id="filter0_d_470_276" x="0" y="0" width="51" height="51" filterUnits="userSpaceOnUse" color-interpolation-filters="sRGB">
<feFlood flood-opacity="0" result="BackgroundImageFix"/>
<feColorMatrix in="SourceAlpha" type="matrix" values="0 0 0 0 0 0 0 0 0 0 0 0 0 0 0 0 0 0 127 0" result="hardAlpha"/>
<feOffset dy="4"/>
<feGaussianBlur stdDeviation="2"/>
<feComposite in2="hardAlpha" operator="out"/>
<feColorMatrix type="matrix" values="0 0 0 0 0 0 0 0 0 0 0 0 0 0 0 0 0 0 0.25 0"/>
<feBlend mode="normal" in2="BackgroundImageFix" result="effect1_dropShadow_470_276"/>
<feBlend mode="normal" in="SourceGraphic" in2="effect1_dropShadow_470_276" result="shape"/>
</filter>
</defs>
</svg>
