<svg width="47" height="45" viewBox="0 0 47 45" fill="none" xmlns="http://www.w3.org/2000/svg">
<g filter="url(#filter0_d_470_274)">
<path d="M40.5 19.5C39.9333 19.5 39.429 19.296 38.987 18.888C38.5436 18.4814 38.2865 17.9771 38.2156 17.375C37.7552 14.0813 36.3655 11.2741 34.0464 8.95363C31.7259 6.63454 28.9187 5.24479 25.625 4.78437C25.0229 4.71354 24.5186 4.46562 24.112 4.04062C23.704 3.61562 23.5 3.10208 23.5 2.5C23.5 1.89792 23.7125 1.39287 24.1375 0.984875C24.5625 0.578292 25.0583 0.410417 25.625 0.48125C30.0875 0.977083 33.8948 2.80104 37.0469 5.95312C40.199 9.10521 42.0229 12.9125 42.5188 17.375C42.5896 17.9417 42.421 18.4375 42.013 18.8625C41.6064 19.2875 41.1021 19.5 40.5 19.5ZM31.6281 19.5C31.1677 19.5 30.7604 19.3406 30.4062 19.0219C30.0521 18.7031 29.7865 18.2781 29.6094 17.7469C29.326 16.7198 28.7863 15.8075 27.9901 15.0099C27.1925 14.2137 26.2802 13.674 25.2531 13.3906C24.7219 13.2135 24.2969 12.9479 23.9781 12.5938C23.6594 12.2396 23.5 11.8146 23.5 11.3187C23.5 10.6104 23.7479 10.0345 24.2438 9.59112C24.7396 9.14912 25.2885 8.99896 25.8906 9.14062C27.874 9.60104 29.5832 10.5481 31.0183 11.9817C32.4519 13.4168 33.399 15.126 33.8594 17.1094C34.001 17.7115 33.8417 18.2604 33.3812 18.7562C32.9208 19.2521 32.3365 19.5 31.6281 19.5V19.5ZM40.3938 38.625C35.825 38.625 31.3717 37.6064 27.0339 35.5693C22.6946 33.5335 18.8519 30.8418 15.5057 27.4943C12.1582 24.1481 9.4665 20.3054 7.43075 15.9661C5.39358 11.6283 4.375 7.175 4.375 2.60625C4.375 1.96875 4.5875 1.4375 5.0125 1.0125C5.4375 0.5875 5.96875 0.375 6.60625 0.375H15.2125C15.7083 0.375 16.151 0.534375 16.5406 0.853125C16.9302 1.17187 17.1604 1.57917 17.2313 2.075L18.6125 9.5125C18.6833 10.0083 18.6748 10.4595 18.587 10.8661C18.4977 11.2741 18.2937 11.6375 17.975 11.9562L12.875 17.1625C14.3625 19.7125 16.2219 22.1031 18.4531 24.3344C20.6844 26.5656 23.1458 28.4958 25.8375 30.125L30.8312 25.1312C31.15 24.8125 31.5665 24.5731 32.0808 24.413C32.5936 24.2543 33.0979 24.2104 33.5938 24.2812L40.925 25.7687C41.4208 25.875 41.8281 26.1137 42.1469 26.4849C42.4656 26.8575 42.625 27.2917 42.625 27.7875V36.3938C42.625 37.0313 42.4125 37.5625 41.9875 37.9875C41.5625 38.4125 41.0313 38.625 40.3938 38.625Z" fill="#A78466"/>
</g>
<defs>
<filter id="filter0_d_470_274" x="0.375" y="0.375" width="46.25" height="46.25" filterUnits="userSpaceOnUse" color-interpolation-filters="sRGB">
<feFlood flood-opacity="0" result="BackgroundImageFix"/>
<feColorMatrix in="SourceAlpha" type="matrix" values="0 0 0 0 0 0 0 0 0 0 0 0 0 0 0 0 0 0 127 0" result="hardAlpha"/>
<feOffset dy="4"/>
<feGaussianBlur stdDeviation="2"/>
<feComposite in2="hardAlpha" operator="out"/>
<feColorMatrix type="matrix" values="0 0 0 0 0 0 0 0 0 0 0 0 0 0 0 0 0 0 0.25 0"/>
<feBlend mode="normal" in2="BackgroundImageFix" result="effect1_dropShadow_470_274"/>
<feBlend mode="normal" in="SourceGraphic" in2="effect1_dropShadow_470_274" result="shape"/>
</filter>
</defs>
</svg>
