<svg width="49" height="56" viewBox="0 0 49 56" fill="none" xmlns="http://www.w3.org/2000/svg">
<g filter="url(#filter0_d_482_11)">
<path d="M24.5003 25.5002C25.8982 25.5002 27.0954 25.002 28.0917 24.0057C29.0863 23.011 29.5837 21.8147 29.5837 20.4168C29.5837 19.0189 29.0863 17.8218 28.0917 16.8255C27.0954 15.8308 25.8982 15.3335 24.5003 15.3335C23.1024 15.3335 21.9061 15.8308 20.9115 16.8255C19.9152 17.8218 19.417 19.0189 19.417 20.4168C19.417 21.8147 19.9152 23.011 20.9115 24.0057C21.9061 25.002 23.1024 25.5002 24.5003 25.5002ZM24.5003 49.9637C24.1614 49.9637 23.8225 49.9002 23.4837 49.7731C23.1448 49.646 22.8482 49.4766 22.5941 49.2647C16.4094 43.8002 11.792 38.7278 8.74199 34.0478C5.69199 29.366 4.16699 24.9918 4.16699 20.9252C4.16699 14.571 6.21134 9.50884 10.3 5.7387C14.387 1.96857 19.1205 0.0834961 24.5003 0.0834961C29.8802 0.0834961 34.6136 1.96857 38.7006 5.7387C42.7893 9.50884 44.8337 14.571 44.8337 20.9252C44.8337 24.9918 43.3087 29.366 40.2587 34.0478C37.2087 38.7278 32.5913 43.8002 26.4066 49.2647C26.1524 49.4766 25.8559 49.646 25.517 49.7731C25.1781 49.9002 24.8392 49.9637 24.5003 49.9637Z" fill="#A78466"/>
</g>
<defs>
<filter id="filter0_d_482_11" x="0.166992" y="0.0834961" width="48.667" height="57.8804" filterUnits="userSpaceOnUse" color-interpolation-filters="sRGB">
<feFlood flood-opacity="0" result="BackgroundImageFix"/>
<feColorMatrix in="SourceAlpha" type="matrix" values="0 0 0 0 0 0 0 0 0 0 0 0 0 0 0 0 0 0 127 0" result="hardAlpha"/>
<feOffset dy="4"/>
<feGaussianBlur stdDeviation="2"/>
<feComposite in2="hardAlpha" operator="out"/>
<feColorMatrix type="matrix" values="0 0 0 0 0 0 0 0 0 0 0 0 0 0 0 0 0 0 0.25 0"/>
<feBlend mode="normal" in2="BackgroundImageFix" result="effect1_dropShadow_482_11"/>
<feBlend mode="normal" in="SourceGraphic" in2="effect1_dropShadow_482_11" result="shape"/>
</filter>
</defs>
</svg>
