<svg width="145" height="206" viewBox="0 0 145 206" fill="none" xmlns="http://www.w3.org/2000/svg">
<path fill-rule="evenodd" clip-rule="evenodd" d="M62.539 0.087595C62.4039 0.118645 61.7223 0.191529 61.0241 0.24938L59.7549 0.354784L59.7562 1.19869C59.757 1.66296 59.974 4.91078 60.2387 8.41615C60.8679 16.7514 60.974 19.6596 60.7529 22.4981C60.3263 27.9782 59.2046 32.0907 56.4602 38.2377C53.2377 45.4558 49.8956 50.4209 45.2383 54.9092C42.1886 57.8483 40.0748 59.4451 31.177 65.532C22.138 71.7155 16.6383 76.8028 11.2137 83.998C1.49309 96.8917 -2.13 112.757 1.21878 127.764C3.90576 139.805 11.1338 149.412 20.3681 153.214C22.0219 153.895 24.9119 154.663 26.4908 154.842L27.5368 154.96L26.2655 153.511C21.0371 147.554 16.9563 140.421 14.8245 133.514C13.0758 127.848 12.3946 123.306 12.4151 117.446C12.4485 107.887 14.7362 99.3828 19.162 92.364C22.2849 87.4112 25.5313 83.8323 36.0082 73.7916C42.8977 67.1889 46.1765 63.6288 49.742 58.8798C55.6322 51.034 59.6526 42.2976 61.797 32.6841C63.0775 26.9436 63.597 21.4716 63.4723 15.0347C63.3868 10.612 63.2596 9.15219 62.4848 3.69951C62.079 0.844556 62.0683 0.889989 63.1211 1.01255C63.6821 1.07792 63.6998 1.06354 63.6525 0.580958C63.613 0.178781 63.5239 0.0768077 63.1941 0.0563802C62.9689 0.0424895 62.6741 0.0565452 62.539 0.087595ZM64.1978 1.02138C64.2666 1.58322 64.4047 2.92522 64.5047 4.0038C64.6048 5.08237 64.791 6.62669 64.9186 7.43562C67.6909 25.0103 64.7036 41.9516 56.0285 57.8508C53.1021 63.2141 51.2077 65.8262 44.1183 74.2745C34.8084 85.3686 31.8163 89.6207 28.0183 97.1534C24.42 104.29 22.5261 109.885 21.7397 115.702C21.4593 117.777 21.4567 124.44 21.7354 126.732C22.9395 136.631 26.2185 145.395 32.2086 154.725C32.3119 154.886 32.5639 154.902 33.2655 154.792C34.0521 154.669 34.23 154.691 34.4833 154.938C35.0624 155.505 37.6466 157.012 39.2173 157.699C42.5168 159.143 46.7239 160.359 50.8029 161.049C52.1378 161.275 53.3715 161.459 53.5443 161.459C53.7958 161.459 53.6343 161.157 52.7355 159.948C45.6454 150.404 41.4798 140.723 40.1827 130.774C38.7217 119.569 40.7841 102.055 45.0077 89.7995C46.9685 84.11 48.1341 81.3037 52.702 71.2748C58.7222 58.0577 60.9324 52.31 63.265 43.8074C66.773 31.0203 68.252 19.1735 68.2674 3.73824L68.271 0.204275L67.7592 0.102138C67.4777 0.0459211 66.5332 0 65.6603 0H64.0731L64.1978 1.02138ZM68.7623 0.69895C68.7623 1.32174 68.9973 1.46424 70.0315 1.46849C70.3243 1.4698 70.5654 1.48925 70.5675 1.51164C70.5697 1.53403 70.7467 4.37051 70.9612 7.81492C71.1758 11.2592 71.3831 14.1092 71.4222 14.1483C71.4614 14.1873 71.5477 11.9207 71.6139 9.1115C71.68 6.3023 71.784 3.20614 71.8451 2.23134C71.906 1.25654 71.919 0.437639 71.8739 0.411329C71.8289 0.385181 71.1103 0.310987 70.2772 0.246273L68.7623 0.128774V0.69895ZM72.4566 10.7233C72.3895 16.3752 72.2861 22.5438 72.227 24.4313C72.1651 26.4081 72.2011 29.6301 72.3119 32.0304C73.1002 49.1098 73.2342 57.1517 73.1106 79.9942C73.0364 93.7086 73.0652 103.47 73.2015 110.717C73.5907 131.438 73.5098 135.429 72.2589 157.142C72.1733 158.63 72.1954 158.955 72.3828 158.96C72.5082 158.963 73.041 159.228 73.5665 159.548C74.8051 160.304 76.8707 161.044 78.8751 161.45C81.0547 161.892 84.9115 162.231 85.2723 162.012C85.7107 161.746 89.0564 154.928 90.1047 152.165C92.4613 145.952 93.9186 139.044 94.4701 131.472C95.0781 123.123 94.0411 105.671 92.3346 95.5273C91.0097 87.6531 89.3215 81.2032 84.5686 65.8584C79.7187 50.2004 78.1521 44.1529 76.7119 35.5294C75.0632 25.659 74.2353 11.4028 74.83 3.12525C74.9228 1.83308 74.9677 0.744868 74.9297 0.706954C74.8917 0.668877 74.3472 0.595015 73.7198 0.542557L72.579 0.447117L72.4566 10.7233ZM75.4769 1.20343C75.4769 1.76641 75.5052 1.79762 76.0157 1.79762H76.5546L76.5625 7.80332C76.5691 12.8898 76.6251 14.2842 76.9285 16.914C77.6842 23.4649 78.6855 28.0952 80.5507 33.6646C81.5444 36.6318 83.3031 41.1131 83.4235 40.9843C83.4479 40.9582 82.9998 39.556 82.4276 37.8686C80.8314 33.1601 79.4729 27.4198 78.6866 22.0617C77.7855 15.9206 77.3684 7.15193 77.7439 2.24703L77.8533 0.817102H77.4249C77.1893 0.817102 76.6545 0.770366 76.2368 0.713168L75.4769 0.60923V1.20343ZM78.4247 4.21085C78.4247 12.953 79.4565 21.4906 81.4805 29.4974C83.8337 38.8058 88.0371 48.634 93.7566 58.2015C95.9192 61.8191 99.3046 66.1056 106.177 73.9281C107.975 75.9744 110.141 78.544 110.99 79.6385C119.502 90.6131 125.22 104.518 126.508 117.377C126.861 120.902 126.749 126.925 126.273 130.006C125.193 136.995 122.963 143.175 119.3 149.328C118.726 150.293 117.843 151.656 117.338 152.359C116.833 153.061 116.419 153.664 116.419 153.7C116.419 153.736 116.906 153.915 117.501 154.099C118.926 154.538 120.858 154.539 122.576 154.103C124.773 153.544 125.319 153.187 127.239 151.048C134.722 142.713 138.912 134.162 140.273 124.445C140.672 121.599 140.671 115.677 140.271 112.76C139.641 108.164 138.743 104.59 137.107 100.177C134.073 91.9898 129.675 84.9991 122.939 77.6588C120.272 74.7512 116.624 71.2967 109.843 65.2544C99.0783 55.6619 94.5196 50.8695 90.4358 44.8514C84.8498 36.6194 81.8991 27.9557 80.6147 16.0152C80.3034 13.12 80.1881 4.06198 80.4355 1.92019L80.5629 0.817102H79.4938H78.4247V4.21085ZM81.0454 4.28978C81.0467 22.3178 85.0982 35.6534 94.0669 47.151C98.0133 52.2103 101.436 55.6234 111.898 64.9313C124.206 75.8821 129.233 81.4335 133.899 89.2275C138.033 96.133 141.05 104.783 141.964 112.351C143.087 121.651 141.262 131.34 136.838 139.561C135.037 142.906 130.842 148.767 129.116 150.347C128.603 150.817 127.859 151.823 128.217 151.562C130.999 149.536 134.023 146.627 135.856 144.211C140.611 137.948 143.461 130.993 144.693 122.647C145.135 119.657 145.093 113.47 144.611 110.309C143.687 104.261 141.74 98.4145 138.487 91.9239C134.799 84.5646 130.59 78.8086 124.38 72.6341C120.861 69.135 117.415 66.1847 111.506 61.613C102.532 54.6693 99.8649 52.3842 95.9839 48.3131C89.6214 41.6392 85.5126 33.6628 83.4289 23.9411C82.2517 18.4484 81.8683 14.5418 81.7489 6.8228C81.6605 1.10325 81.6417 0.817102 81.3507 0.817102C81.0619 0.817102 81.0451 1.00928 81.0454 4.28978ZM68.946 18.2214C68.9303 18.4011 68.7754 20.2764 68.6018 22.3886C67.6256 34.2607 65.0555 45.4802 60.7777 56.5434C59.1041 60.8718 57.8221 63.8709 54.3371 71.6105C52.7059 75.2328 50.8899 79.3365 50.3013 80.7296C45.3811 92.3746 43.3721 100.343 41.8764 114.149C41.3835 118.698 41.3383 127.769 41.7916 131.145C43.0996 140.883 46.3403 148.921 52.9 158.699L54.8305 161.576L55.6959 161.68C57.0486 161.842 62.316 161.804 63.8534 161.621C65.7596 161.394 67.6159 160.98 67.6159 160.782C67.6159 160.692 67.3244 159.502 66.968 158.138C64.8136 149.89 63.3962 141.129 62.614 131.227C62.4684 129.384 62.3091 124.972 62.2599 121.421C62.0995 109.856 62.5762 104.2 65.8203 79.1771C67.8463 63.5506 68.4447 58.316 69.0805 50.6603C69.4053 46.7506 69.4079 46.3185 69.1938 32.2755C69.0731 24.366 68.9616 18.0416 68.946 18.2214ZM78.7528 38.2539C78.7536 38.6577 80.1781 44.8175 81.0292 48.0977C82.2367 52.7513 83.6742 57.6347 86.4503 66.5121C92.9911 87.4294 94.5953 94.8889 95.7792 109.894C96.8779 123.82 96.525 133.014 94.5519 141.859C93.1349 148.212 90.803 154.334 87.6219 160.055L86.449 162.164L88.8649 162.061C92.6505 161.9 96.3353 161.38 100.276 160.448C102.29 159.972 102.432 159.911 103.203 159.192C105.014 157.504 107.988 153.749 109.835 150.82C113.589 144.868 115.919 138.125 117.003 130.083C117.365 127.393 117.505 119.563 117.254 115.994C116.397 103.813 114.652 97.052 110.031 88.0018C107.236 82.5281 102.799 75.2967 101.007 73.294C96.8542 68.6532 91.9595 62.431 88.9912 58.0189C84.962 52.0306 81.3439 45.0824 79.4183 39.6353C78.8862 38.1302 78.752 37.8514 78.7528 38.2539ZM50.4732 60.5881C47.2224 64.8365 43.4406 68.8779 36.0202 76.0336C25.4023 86.2727 21.7086 90.7264 18.639 96.99C16.3474 101.667 15.0236 106.6 14.2975 113.169C13.9434 116.371 14.0548 122.092 14.5361 125.425C16.003 135.584 20.2538 144.869 27.2545 153.204L28.8354 155.086H29.7292C30.4017 155.086 30.5923 155.035 30.4985 154.882C30.43 154.769 29.8447 153.905 29.1976 152.961C23.5802 144.767 20.1199 135.961 18.6983 126.242C18.4771 124.73 18.4112 123.197 18.4102 119.542C18.4093 115.095 18.4371 114.645 18.8598 112.253C20.368 103.718 25.0813 93.4808 31.7826 84.1861C33.8718 81.2885 35.7969 78.9166 40.4909 73.4574C45.4561 67.6828 48.2181 64.2554 49.9066 61.7729C51.2732 59.7636 51.4514 59.485 51.3697 59.485C51.3409 59.485 50.9375 59.9815 50.4732 60.5881ZM69.2732 64.6777C69.1593 65.7316 68.4079 71.8754 67.6034 78.3308C64.4394 103.721 64.0134 108.759 64.0162 120.768C64.0185 131.561 64.584 139.167 66.0676 148.361C66.7306 152.469 68.3976 160.333 68.6616 160.596C68.6863 160.621 69.0427 160.527 69.4531 160.387L70.1994 160.134L70.3211 155.608C70.4688 150.117 70.3206 123.978 70.0841 113.822C69.9901 109.778 69.8402 96.6589 69.7513 84.6695C69.6624 72.6804 69.5651 62.8462 69.535 62.8163C69.5048 62.7862 69.3871 63.6239 69.2732 64.6777ZM109.584 83.5096C111.486 86.7499 114.066 92.1542 115.243 95.3638C117.812 102.373 119.096 110.892 119.096 120.931C119.096 128.783 118.034 135.312 115.735 141.595C113.581 147.485 109.608 153.82 105.304 158.232C104.712 158.838 104.275 159.335 104.334 159.335C104.529 159.335 108.626 157.745 109.765 157.227C111.35 156.507 114.08 154.88 113.838 154.799C113.517 154.692 113.593 154.476 114.273 153.557C116.409 150.671 119.226 145.435 120.484 142.009C121.817 138.381 122.847 134.123 123.33 130.246C123.668 127.533 123.616 119.262 123.245 116.519C121.772 105.648 117.725 95.1279 111.487 85.9591C110.245 84.1332 109.039 82.5807 109.584 83.5096ZM19.754 166.474C19.4849 166.545 19.4674 167.18 19.4674 176.914V187.28H20.3681H21.2689V181.157V175.035L21.6298 174.842C22.3809 174.441 23.6981 174.21 25.2455 174.208C26.9568 174.206 27.7465 174.419 28.4471 175.072C29.358 175.92 29.3691 175.995 29.4574 181.805L29.5393 187.198H30.44H31.3407L31.3894 182.295C31.4515 176.058 31.2805 175.064 29.9222 173.765C29.0047 172.888 27.9571 172.527 26.1001 172.448C24.5585 172.382 24.1206 172.438 21.6373 173.015L21.2689 173.1V169.832C21.2689 166.581 21.2669 166.563 20.9004 166.465C20.4977 166.357 20.1942 166.36 19.754 166.474ZM95.2522 166.474C94.9831 166.545 94.9656 167.181 94.9656 176.923V187.297L95.8253 187.247L96.6851 187.198L96.7295 183.97L96.7739 180.743H98.6191C100.207 180.743 100.566 180.794 101.195 181.111C101.893 181.462 101.991 181.608 103.396 184.379L104.867 187.28H105.812C106.339 187.28 106.757 187.207 106.757 187.114C106.757 186.741 103.779 181.047 103.298 180.5C103.012 180.175 102.526 179.78 102.219 179.623L101.661 179.337L104.127 176.261C105.483 174.569 106.593 173.121 106.593 173.042C106.593 172.963 106.133 172.9 105.57 172.901L104.546 172.903L102.183 175.924L99.8197 178.945H98.2934H96.767V172.754V166.563L96.3985 166.465C95.9958 166.357 95.6924 166.36 95.2522 166.474ZM130.34 166.52C128.269 166.737 127.029 167.39 126.364 168.616C125.906 169.459 125.591 170.886 125.591 172.112V172.899H124.108H122.625L122.675 173.675L122.725 174.451L124.156 174.498L125.587 174.546L125.63 180.872L125.673 187.198L126.475 187.249C127.007 187.282 127.325 187.227 127.415 187.085C127.49 186.968 127.552 184.097 127.553 180.707L127.556 174.542L129.808 174.497L132.06 174.451V173.716V172.98L129.808 172.935L127.556 172.89V171.775C127.556 169.317 128.324 168.477 130.793 168.234L131.978 168.117V167.339C131.978 166.78 131.905 166.532 131.719 166.461C131.576 166.406 131.447 166.372 131.432 166.385C131.417 166.398 130.925 166.458 130.34 166.52ZM140.33 166.52C137.119 166.856 135.865 168.196 135.628 171.542L135.532 172.899H134.073H132.615L132.665 173.675L132.715 174.451L134.146 174.498L135.577 174.546L135.62 180.872L135.663 187.198L136.465 187.249C136.997 187.282 137.315 187.227 137.405 187.085C137.48 186.968 137.542 184.097 137.543 180.707L137.546 174.542L139.798 174.497L142.05 174.451V173.716V172.98L139.798 172.935L137.546 172.89V171.703C137.546 170.795 137.632 170.348 137.914 169.797C138.452 168.748 138.931 168.471 140.562 168.269L141.968 168.096V167.328C141.968 166.779 141.894 166.532 141.709 166.461C141.566 166.406 141.437 166.372 141.422 166.385C141.407 166.398 140.915 166.458 140.33 166.52ZM8.56143 172.567C6.71442 172.96 5.17171 174.277 4.66058 175.899C4.42033 176.661 4.38528 177.338 4.42982 180.364C4.47912 183.704 4.50696 183.984 4.87053 184.786C5.59341 186.382 6.98825 187.294 9.20865 187.624C12.3247 188.086 15.0577 186.892 16.1273 184.6C16.6217 183.54 16.6178 183.291 16.1024 183.057C15.2321 182.661 14.9511 182.795 14.3504 183.889C13.6858 185.099 12.8159 185.718 11.4153 185.976C9.38208 186.351 7.52001 185.638 6.69329 184.167C6.30778 183.482 6.28059 183.272 6.22737 180.579C6.15973 177.147 6.31564 176.241 7.12859 175.343C7.9106 174.479 8.91681 174.122 10.5419 174.132C11.2625 174.137 12.1187 174.231 12.4444 174.342C13.2361 174.612 14.1527 175.554 14.4963 176.452C14.7731 177.175 14.7831 177.182 15.4247 177.096C16.4321 176.961 16.5778 176.723 16.2465 175.751C15.8739 174.658 14.4421 173.225 13.326 172.829C12.3905 172.497 9.61119 172.344 8.56143 172.567ZM38.8139 172.585C37.1292 172.915 35.7629 173.973 35.0438 175.502C34.6352 176.372 34.6137 176.558 34.5605 179.681C34.4982 183.331 34.6224 184.224 35.3523 185.373C36.3542 186.949 38.0021 187.671 40.5938 187.668C43.5189 187.665 45.6212 186.626 46.651 184.675C46.8406 184.316 46.818 184.24 46.4206 183.899C45.7452 183.32 45.3425 183.411 44.6877 184.292C44.3048 184.808 43.7993 185.225 43.1632 185.549C42.3312 185.973 42.0325 186.036 40.7885 186.044C39.1092 186.055 38.3316 185.82 37.4617 185.036C36.6923 184.342 36.3357 183.284 36.3357 181.694V180.579H41.4618C45.2303 180.579 46.6398 180.527 46.7843 180.383C47.1153 180.053 47.0326 177.349 46.6541 176.127C46.0825 174.28 44.6412 173.026 42.5919 172.592C41.6001 172.382 39.8635 172.379 38.8139 172.585ZM53.107 172.567C50.9676 173.022 49.7143 174.267 49.4896 176.16C49.2579 178.112 50.298 179.799 52.0577 180.325C52.5531 180.473 53.8428 180.709 54.9237 180.85C57.3814 181.171 58.5219 181.574 58.9479 182.271C59.6065 183.349 59.1761 184.953 58.0756 185.523C57.1814 185.986 55.5232 186.191 54.2576 185.994C52.6279 185.741 51.7621 185.154 50.9713 183.765C50.7461 183.37 49.7086 183.344 49.3278 183.724C49.11 183.941 49.129 184.06 49.4978 184.786C50.4811 186.722 52.3905 187.666 55.3331 187.672C59.0261 187.678 60.8843 186.371 61.0385 183.658C61.1443 181.796 60.5197 180.662 59.0237 180.004C58.014 179.56 57.7083 179.493 55.3331 179.2C54.2973 179.072 53.1576 178.87 52.8007 178.752C51.8834 178.448 51.4026 177.684 51.4026 176.532C51.4026 175.717 51.4567 175.585 52.0168 175.027C52.5362 174.51 52.805 174.386 53.7598 174.22C56.1975 173.798 58.2286 174.501 59.0368 176.045C59.3045 176.556 59.7027 176.614 60.4182 176.245C61.0192 175.934 61.0204 175.765 60.4272 174.831C59.4326 173.266 57.9181 172.555 55.415 172.476C54.5143 172.448 53.4756 172.488 53.107 172.567ZM67.8877 172.57C66.4189 172.834 64.7995 173.406 64.403 173.802L64.0092 174.195L64.0519 180.696L64.0948 187.198L64.8978 187.249C65.4294 187.282 65.7469 187.227 65.837 187.085C65.9119 186.968 65.9743 184.214 65.9757 180.967C65.9777 176.308 66.0234 175.026 66.1922 174.886C66.6216 174.53 68.3738 174.206 69.8664 174.206C72.0639 174.206 73.0477 174.689 73.6934 176.085C73.9656 176.674 73.9964 177.228 74.0016 181.642C74.0047 184.338 74.0527 186.713 74.1082 186.92C74.1991 187.258 74.2913 187.29 75.0476 187.247L75.8863 187.198V181.723C75.8863 175.535 75.8421 175.262 74.6287 173.948C73.6469 172.885 72.6368 172.526 70.4819 172.472C69.4911 172.448 68.3237 172.492 67.8877 172.57ZM83.256 172.627C82.008 172.949 81.1954 173.393 80.4434 174.164C79.3009 175.334 79.1617 175.987 79.1617 180.171C79.1617 183.6 79.1796 183.806 79.5487 184.62C79.9937 185.602 81.088 186.682 82.0835 187.122C84.4887 188.183 88.2492 187.777 89.9647 186.27C91.4103 185 91.4445 184.857 91.4445 180.089C91.4445 176.128 91.427 175.889 91.0898 175.261C90.5736 174.299 89.4293 173.323 88.3196 172.9C87.127 172.444 84.5118 172.303 83.256 172.627ZM113.226 172.507C110.387 173.203 109.105 174.391 108.717 176.686C108.467 178.166 108.593 183.507 108.9 184.398C109.207 185.292 110.389 186.537 111.391 187.021C113.576 188.075 117.109 187.898 118.963 186.642C119.796 186.077 120.622 184.986 120.847 184.151C120.961 183.733 121.008 182.094 120.975 179.705C120.916 175.401 120.864 175.198 119.491 173.935C118.435 172.964 117.186 172.54 115.191 172.478C114.29 172.45 113.406 172.463 113.226 172.507ZM42.4585 174.274C44.1199 174.773 44.9257 175.88 45.1161 177.925L45.2263 179.109H40.7574H36.2884L36.38 177.902C36.5346 175.863 37.3755 174.724 39.1189 174.195C39.808 173.986 41.6439 174.029 42.4585 174.274ZM87.3445 174.417C88.2167 174.67 89.3155 175.749 89.5431 176.576C89.7775 177.427 89.7766 182.755 89.5421 183.603C89.3027 184.468 88.3286 185.376 87.261 185.73C86.6292 185.939 86.0532 185.992 84.9985 185.939C83.0234 185.839 82.009 185.277 81.3099 183.897C80.9532 183.192 80.9196 177.107 81.2678 176.284C81.5311 175.663 82.2401 174.928 82.9091 174.582C83.9409 174.05 85.8349 173.979 87.3445 174.417ZM117.073 174.557C117.927 174.927 118.472 175.397 118.847 176.085C119.197 176.728 119.339 182.005 119.041 183.332C118.634 185.15 117.027 186.068 114.477 185.939C112.924 185.861 112.086 185.538 111.312 184.721C110.594 183.963 110.524 183.544 110.524 180.023C110.524 176.868 110.542 176.674 110.905 175.988C111.818 174.263 114.8 173.571 117.073 174.557ZM83.5016 193.008C83.5016 194.828 83.5002 194.835 83.1331 194.72C82.9306 194.657 82.1677 194.566 81.438 194.519C79.8417 194.414 79.1154 194.684 78.5502 195.591C78.21 196.136 78.1791 196.38 78.1791 198.503C78.1791 201.033 78.2562 201.277 79.3057 202.058C80.2657 202.774 83.8762 202.489 84.319 201.664C84.4287 201.459 84.4736 199.564 84.4458 196.315L84.4024 191.283L83.952 191.232L83.5016 191.18V193.008ZM95.065 191.46C95.0103 191.602 94.9656 192.419 94.9656 193.275C94.9656 194.695 94.9403 194.821 94.679 194.71C94.5214 194.643 93.7659 194.557 93.0003 194.518C91.2784 194.432 90.6491 194.707 90.0854 195.79C89.7391 196.455 89.7128 196.685 89.7578 198.667C89.8004 200.542 89.8505 200.879 90.1445 201.272C90.8423 202.203 91.2763 202.393 92.8074 202.438C94.5796 202.489 95.7952 202.128 95.9675 201.497C96.1072 200.987 96.1483 191.813 96.0125 191.46C95.9578 191.318 95.7446 191.202 95.5387 191.202C95.3329 191.202 95.1197 191.318 95.065 191.46ZM106.102 196.758V202.336L106.552 202.284L107.003 202.233V196.758V191.283L106.552 191.232L106.102 191.18V196.758ZM39.5196 192.244C39.3797 192.8 39.5388 192.999 40.1224 192.999C40.579 192.999 40.6108 192.961 40.5631 192.468C40.5206 192.028 40.4362 191.928 40.0672 191.886C39.7088 191.845 39.6026 191.914 39.5196 192.244ZM109.167 191.957C109.102 192.021 109.05 192.286 109.05 192.547C109.05 192.982 109.092 193.016 109.582 192.969C110.053 192.924 110.114 192.861 110.114 192.427C110.114 192.024 110.041 191.928 109.699 191.889C109.47 191.862 109.231 191.893 109.167 191.957ZM21.9239 193.715V194.616L21.0656 194.666C20.3781 194.705 20.1958 194.776 20.1488 195.023C20.0704 195.434 20.3897 195.609 21.2279 195.612L21.9239 195.614L21.9243 198.188C21.9244 200.311 21.9746 200.862 22.2109 201.334C22.5682 202.048 23.3982 202.477 24.4214 202.477C25.1329 202.478 25.1994 202.444 25.1994 202.087C25.1994 201.66 24.9299 201.497 24.2215 201.497C23.9686 201.497 23.5877 201.357 23.3751 201.185C23.0022 200.884 22.9867 200.78 22.9362 198.244L22.884 195.614L23.9188 195.612C25.0852 195.609 25.4219 195.469 25.3366 195.023C25.2866 194.761 25.1012 194.708 24.1004 194.667L22.9233 194.62L22.874 193.769C22.8281 192.976 22.7939 192.914 22.3743 192.866C21.9311 192.815 21.9239 192.829 21.9239 193.715ZM7.09453 194.7C6.43045 194.989 5.74801 195.821 5.62076 196.498C5.5641 196.8 5.54281 197.895 5.57327 198.934C5.63321 200.972 5.76422 201.32 6.74963 202.054C7.37229 202.518 9.22748 202.617 10.2183 202.24C10.997 201.943 11.7083 201.228 11.8717 200.578C11.9875 200.118 11.9803 200.106 11.4913 199.957C11.1896 199.864 11.0769 199.951 10.8034 200.486C10.2592 201.55 8.87128 201.959 7.5996 201.428C6.73637 201.068 6.5292 200.489 6.53198 198.441C6.53477 196.426 6.68429 195.989 7.51444 195.574C8.74337 194.958 10.4486 195.402 10.8408 196.439C11.025 196.926 11.3324 197.038 11.7554 196.771C12.2562 196.454 11.2356 195.018 10.2447 194.644C9.60677 194.403 7.69868 194.437 7.09453 194.7ZM14.5281 194.801C13.9457 195.107 13.2441 195.835 13.2441 196.132C13.2441 196.212 13.41 196.342 13.6126 196.419C13.9098 196.533 14.0664 196.468 14.4229 196.086C14.9583 195.512 15.5082 195.287 16.3746 195.287C17.6705 195.287 18.321 195.992 18.321 197.395L18.3212 197.984H16.4786C15.0261 197.984 14.5241 198.045 14.1067 198.272C13.3501 198.685 13.0283 199.397 13.1169 200.463C13.2043 201.517 13.6521 202.072 14.6255 202.334C15.4964 202.568 18.1019 202.445 18.7304 202.14L19.2217 201.902L19.2661 199.207C19.3077 196.683 19.2871 196.467 18.9386 195.778C18.4419 194.796 17.7715 194.469 16.2739 194.478C15.4671 194.483 14.9498 194.578 14.5281 194.801ZM27.6685 194.832C26.5038 195.453 26.2639 196.089 26.2639 198.556C26.2639 200.309 26.3109 200.679 26.5952 201.17C27.5676 202.85 30.9333 202.952 32.2891 201.345C32.8381 200.694 32.843 200.551 32.3206 200.42C31.9966 200.339 31.8327 200.412 31.5561 200.763C30.555 202.033 28.0571 201.936 27.4229 200.602C27.2809 200.303 27.1646 199.757 27.1646 199.389V198.719H29.9377C32.6144 198.719 32.7144 198.707 32.8202 198.375C33.001 197.806 32.7357 196.32 32.3535 195.76C31.6919 194.79 31.2079 194.557 29.732 194.499C28.5763 194.453 28.2936 194.499 27.6685 194.832ZM35.4797 194.73C35.0537 194.861 34.6286 195.112 34.5346 195.287C34.4275 195.486 34.3803 196.844 34.408 198.919L34.4524 202.233L34.9027 202.284L35.3531 202.336L35.3556 199.179C35.3571 197.443 35.415 195.933 35.4846 195.824C35.614 195.621 36.7859 195.332 37.8097 195.251C38.2625 195.215 38.3938 195.128 38.4353 194.838C38.4852 194.487 38.4381 194.471 37.3708 194.482C36.7565 194.488 35.9055 194.6 35.4797 194.73ZM43.7411 194.711C42.5119 195.094 42.559 194.93 42.559 198.821V202.314H43.0503H43.5416V199.042V195.769L43.992 195.594C44.8377 195.266 46.228 195.226 46.8329 195.512C47.8039 195.972 47.8696 196.205 47.9358 199.423L47.9955 202.333L48.4299 202.283L48.8642 202.233L48.9097 199.788C48.9759 196.238 48.7058 195.343 47.3601 194.654C46.8755 194.405 44.6065 194.441 43.7411 194.711ZM52.1396 194.701C51.4786 194.994 50.9377 195.607 50.7436 196.281C50.6557 196.587 50.5854 197.61 50.5874 198.555C50.592 200.754 50.891 201.519 51.9293 201.989C52.7262 202.35 54.0013 202.407 55.103 202.13C55.5067 202.029 55.8799 201.988 55.9323 202.041C55.9849 202.093 55.9761 202.549 55.9129 203.055C55.7566 204.302 55.2021 204.929 54.1502 205.047C53.0862 205.167 52.5762 205 51.9626 204.331C51.5595 203.892 51.3502 203.78 51.09 203.862C50.5864 204.022 50.6701 204.4 51.3617 205.09C52.4404 206.165 54.7311 206.313 55.9161 205.382C56.7921 204.695 56.8742 204.237 56.9392 199.673C56.9967 195.64 56.9862 195.466 56.668 195.149C56.4859 194.967 56.0558 194.74 55.7122 194.645C54.8461 194.405 52.7321 194.438 52.1396 194.701ZM63.5953 194.7C63.0274 194.947 62.1674 195.89 62.2585 196.166C62.3738 196.516 63.0516 196.474 63.3135 196.101C63.8225 195.375 65.4174 195.053 66.3057 195.496C66.8262 195.756 67.2877 196.666 67.288 197.434L67.2884 198.029L65.9186 197.944C63.1902 197.774 62.0477 198.419 62.0477 200.129C62.0477 201.307 62.3634 201.882 63.1911 202.212C63.9558 202.518 66.2065 202.572 67.16 202.307C68.2895 201.994 68.3098 201.931 68.2461 198.896C68.1817 195.832 68.0121 195.288 66.9552 194.756C66.2672 194.41 64.3369 194.378 63.5953 194.7ZM71.2545 194.711C70.0253 195.094 70.0724 194.93 70.0724 198.821V202.314H70.5638H71.0551V199.042V195.769L71.4883 195.605C72.3569 195.275 73.7509 195.23 74.3459 195.512C75.3251 195.976 75.3893 196.203 75.4494 199.423L75.5037 202.333L75.9407 202.283L76.3776 202.233V199.291C76.3776 195.884 76.2292 195.347 75.1333 194.789C74.3839 194.407 72.3588 194.366 71.2545 194.711ZM99.2174 194.838C98.0695 195.415 97.7496 196.208 97.7496 198.474C97.7496 200.74 98.0695 201.533 99.2174 202.11C100.153 202.581 101.785 202.609 102.751 202.171C103.625 201.775 104.383 200.895 104.121 200.58C103.836 200.236 103.484 200.307 103.109 200.782C102.159 201.987 99.6294 201.937 98.9887 200.701C98.8477 200.429 98.7323 199.872 98.7323 199.463V198.719H101.534H104.335L104.277 197.453C104.209 195.974 103.849 195.317 102.819 194.793C101.903 194.327 100.19 194.348 99.2174 194.838ZM120.671 194.838C119.523 195.415 119.204 196.208 119.204 198.474C119.204 200.74 119.523 201.533 120.671 202.11C121.607 202.581 123.239 202.609 124.205 202.171C125.079 201.775 125.837 200.895 125.575 200.58C125.29 200.236 124.938 200.307 124.563 200.782C123.613 201.987 121.083 201.937 120.443 200.701C120.302 200.429 120.186 199.872 120.186 199.463V198.719H122.988H125.789L125.731 197.453C125.663 195.974 125.303 195.317 124.273 194.793C123.357 194.327 121.644 194.348 120.671 194.838ZM128.629 194.654C127.38 194.946 127.392 194.906 127.392 198.826V202.314H127.883H128.375V199.042V195.769L128.825 195.593C129.073 195.496 129.732 195.378 130.29 195.33C131.268 195.247 131.637 195.009 131.395 194.619C131.279 194.431 129.485 194.454 128.629 194.654ZM39.6111 198.474V202.314H40.1025H40.5938V198.474V194.634H40.1025H39.6111V198.474ZM109.123 194.842C109.079 194.956 109.063 196.666 109.087 198.641L109.132 202.233L109.582 202.284L110.032 202.336V198.485V194.634H109.618C109.39 194.634 109.167 194.727 109.123 194.842ZM111.343 194.768C111.343 194.842 112.032 196.551 112.874 198.567C114.36 202.122 114.42 202.233 114.87 202.233C115.318 202.233 115.381 202.119 116.848 198.637C117.681 196.66 118.367 194.95 118.373 194.838C118.38 194.72 118.189 194.634 117.924 194.634C117.483 194.634 117.417 194.746 116.365 197.293C115.761 198.756 115.188 200.24 115.09 200.591L114.914 201.23L114.391 199.852C114.104 199.094 113.507 197.61 113.065 196.554C112.31 194.75 112.233 194.634 111.802 194.634C111.549 194.634 111.343 194.694 111.343 194.768ZM132.578 194.743C132.395 194.925 132.457 199.67 132.652 200.444C132.894 201.403 133.672 202.09 134.688 202.242C135.415 202.351 136.726 202.261 137.505 202.05C137.843 201.958 137.873 202.004 137.873 202.619C137.873 203.646 137.449 204.533 136.812 204.835C135.741 205.342 134.478 205.099 133.767 204.249C133.441 203.86 133.264 203.771 132.989 203.858C132.472 204.022 132.55 204.395 133.247 205.09C133.697 205.539 134.089 205.751 134.717 205.885C136.376 206.24 137.753 205.764 138.438 204.602C138.752 204.067 138.777 203.727 138.824 199.332L138.875 194.634H138.374H137.873V197.811C137.873 199.558 137.813 201.025 137.739 201.071C137.664 201.116 137.133 201.23 136.556 201.322C135.295 201.525 134.498 201.352 133.932 200.751C133.546 200.341 133.532 200.236 133.479 197.481C133.425 194.653 133.422 194.634 133.056 194.634C132.853 194.634 132.638 194.683 132.578 194.743ZM30.8799 195.606C31.4999 195.983 31.7028 196.323 31.8478 197.228L31.9559 197.902H29.5602H27.1646V197.354C27.1646 196.714 27.7383 195.788 28.3159 195.496C28.94 195.181 30.2756 195.238 30.8799 195.606ZM55.0704 195.443C55.4214 195.524 55.7704 195.688 55.8459 195.807C55.9214 195.925 55.9843 197.141 55.9857 198.508L55.9882 200.994L55.2922 201.187C54.9094 201.292 54.1782 201.381 53.6674 201.383C51.9285 201.392 51.4924 200.689 51.5905 198.031C51.6378 196.748 51.7076 196.399 51.9758 196.099C52.6388 195.358 53.717 195.13 55.0704 195.443ZM82.653 195.539L83.5016 195.79V198.484V201.179L83.0513 201.35C81.5244 201.931 79.8066 201.587 79.3404 200.607C78.9945 199.879 78.9811 197.147 79.3194 196.339C79.7339 195.349 80.9927 195.047 82.653 195.539ZM94.5152 195.594L94.9656 195.769V198.54V201.311L94.0394 201.502C92.4279 201.836 91.2205 201.446 90.8836 200.482C90.7868 200.204 90.7075 199.25 90.7075 198.36C90.7075 196.496 90.9301 195.884 91.7417 195.516C92.3133 195.257 93.7507 195.298 94.5152 195.594ZM102.341 195.535C102.929 195.839 103.318 196.549 103.318 197.322V197.902H101.025H98.7323V197.396C98.7323 196.639 99.1808 195.84 99.7675 195.551C100.433 195.224 101.721 195.216 102.341 195.535ZM123.795 195.535C124.383 195.839 124.772 196.549 124.772 197.322V197.902H122.479H120.186V197.396C120.186 196.639 120.635 195.84 121.221 195.551C121.887 195.224 123.175 195.216 123.795 195.535ZM17.9525 198.822C18.2927 198.913 18.321 199.014 18.321 200.131C18.321 201.28 18.2997 201.35 17.9009 201.501C17.3307 201.718 15.3183 201.703 14.8256 201.479C13.7893 201.008 13.864 199.315 14.9403 198.881C15.3466 198.717 17.4101 198.677 17.9525 198.822ZM66.9199 198.822C67.26 198.913 67.2884 199.014 67.2884 200.132C67.2884 201.593 67.3092 201.579 65.1859 201.579C63.7761 201.579 63.632 201.549 63.3434 201.193C63.0321 200.81 62.9335 199.978 63.1368 199.45C63.1952 199.297 63.4715 199.074 63.7509 198.952C64.2704 198.727 66.2577 198.645 66.9199 198.822Z" fill="#F3F2ED"/>
</svg>
